<mxfile host="Electron" modified="2024-02-29T05:51:00.167Z" agent="Mozilla/5.0 (X11; Linux x86_64) AppleWebKit/537.36 (KHTML, like Gecko) draw.io/23.1.5 Chrome/120.0.6099.109 Electron/28.1.0 Safari/537.36" etag="EvuctogMPFoKS19aevyN" version="23.1.5" type="device">
  <diagram name="Page-1" id="okQUsLcCIn6qNMJXYvbM">
    <mxGraphModel dx="4580" dy="1203" grid="1" gridSize="10" guides="1" tooltips="1" connect="1" arrows="1" fold="1" page="1" pageScale="1" pageWidth="850" pageHeight="1100" math="0" shadow="0">
      <root>
        <mxCell id="0" />
        <mxCell id="1" parent="0" />
        <mxCell id="GGCa3WzGmQT2JZWEV5bZ-1" value="&lt;font style=&quot;font-size: 48px;&quot;&gt;Target Server&lt;/font&gt;" style="rounded=1;whiteSpace=wrap;html=1;verticalAlign=top;" parent="1" vertex="1">
          <mxGeometry x="-1010" y="350" width="540" height="360" as="geometry" />
        </mxCell>
        <mxCell id="GGCa3WzGmQT2JZWEV5bZ-2" value="&lt;font style=&quot;font-size: 24px;&quot;&gt;Physical&lt;br&gt;Disk&lt;/font&gt;" style="shape=cylinder3;whiteSpace=wrap;html=1;boundedLbl=1;backgroundOutline=1;size=15;" parent="1" vertex="1">
          <mxGeometry x="-920" y="770" width="120" height="80" as="geometry" />
        </mxCell>
        <mxCell id="GGCa3WzGmQT2JZWEV5bZ-3" value="&lt;font style=&quot;font-size: 24px;&quot;&gt;Physical&lt;br&gt;Disk&lt;/font&gt;" style="shape=cylinder3;whiteSpace=wrap;html=1;boundedLbl=1;backgroundOutline=1;size=15;" parent="1" vertex="1">
          <mxGeometry x="-680" y="770" width="120" height="80" as="geometry" />
        </mxCell>
        <mxCell id="GGCa3WzGmQT2JZWEV5bZ-4" value="&lt;font style=&quot;font-size: 24px;&quot;&gt;/dev/nvme0n1&lt;br&gt;&lt;/font&gt;" style="rounded=0;whiteSpace=wrap;html=1;" parent="1" vertex="1">
          <mxGeometry x="-950" y="650" width="180" height="60" as="geometry" />
        </mxCell>
        <mxCell id="GGCa3WzGmQT2JZWEV5bZ-5" value="" style="endArrow=classic;html=1;rounded=0;strokeWidth=5;strokeColor=#000000;exitX=0.5;exitY=0;exitDx=0;exitDy=0;exitPerimeter=0;entryX=0.5;entryY=1;entryDx=0;entryDy=0;" parent="1" source="GGCa3WzGmQT2JZWEV5bZ-3" target="GGCa3WzGmQT2JZWEV5bZ-7" edge="1">
          <mxGeometry width="50" height="50" relative="1" as="geometry">
            <mxPoint x="-580" y="700" as="sourcePoint" />
            <mxPoint x="-530" y="650" as="targetPoint" />
          </mxGeometry>
        </mxCell>
        <mxCell id="GGCa3WzGmQT2JZWEV5bZ-6" value="" style="endArrow=classic;html=1;rounded=0;strokeWidth=5;strokeColor=#000000;exitX=0.5;exitY=0;exitDx=0;exitDy=0;exitPerimeter=0;entryX=0.5;entryY=1;entryDx=0;entryDy=0;" parent="1" source="GGCa3WzGmQT2JZWEV5bZ-2" target="GGCa3WzGmQT2JZWEV5bZ-4" edge="1">
          <mxGeometry width="50" height="50" relative="1" as="geometry">
            <mxPoint x="-990" y="730" as="sourcePoint" />
            <mxPoint x="-940" y="680" as="targetPoint" />
          </mxGeometry>
        </mxCell>
        <mxCell id="GGCa3WzGmQT2JZWEV5bZ-7" value="&lt;font style=&quot;font-size: 24px;&quot;&gt;/dev/nvme1n1&lt;br&gt;&lt;/font&gt;" style="rounded=0;whiteSpace=wrap;html=1;" parent="1" vertex="1">
          <mxGeometry x="-710" y="650" width="180" height="60" as="geometry" />
        </mxCell>
        <mxCell id="GGCa3WzGmQT2JZWEV5bZ-8" value="&lt;font style=&quot;font-size: 24px;&quot;&gt;device mapper&lt;/font&gt;" style="rounded=1;whiteSpace=wrap;html=1;" parent="1" vertex="1">
          <mxGeometry x="-800" y="530" width="120" height="60" as="geometry" />
        </mxCell>
        <mxCell id="GGCa3WzGmQT2JZWEV5bZ-9" value="" style="endArrow=classic;html=1;rounded=0;strokeWidth=5;strokeColor=#808080;exitX=0.5;exitY=0;exitDx=0;exitDy=0;entryX=0.5;entryY=1;entryDx=0;entryDy=0;" parent="1" source="GGCa3WzGmQT2JZWEV5bZ-4" target="GGCa3WzGmQT2JZWEV5bZ-8" edge="1">
          <mxGeometry width="50" height="50" relative="1" as="geometry">
            <mxPoint x="-1080" y="780" as="sourcePoint" />
            <mxPoint x="-1080" y="720" as="targetPoint" />
          </mxGeometry>
        </mxCell>
        <mxCell id="GGCa3WzGmQT2JZWEV5bZ-10" value="" style="endArrow=classic;html=1;rounded=0;strokeWidth=5;strokeColor=#808080;exitX=0.5;exitY=0;exitDx=0;exitDy=0;entryX=0.5;entryY=1;entryDx=0;entryDy=0;" parent="1" source="GGCa3WzGmQT2JZWEV5bZ-7" target="GGCa3WzGmQT2JZWEV5bZ-8" edge="1">
          <mxGeometry width="50" height="50" relative="1" as="geometry">
            <mxPoint x="-740.5" y="820" as="sourcePoint" />
            <mxPoint x="-740.5" y="760" as="targetPoint" />
          </mxGeometry>
        </mxCell>
        <mxCell id="GGCa3WzGmQT2JZWEV5bZ-11" value="&lt;font style=&quot;font-size: 24px;&quot;&gt;nvmeof&lt;br&gt;target&lt;br&gt;&lt;/font&gt;" style="rounded=0;whiteSpace=wrap;html=1;" parent="1" vertex="1">
          <mxGeometry x="-800" y="410" width="120" height="60" as="geometry" />
        </mxCell>
        <mxCell id="GGCa3WzGmQT2JZWEV5bZ-13" value="&lt;font style=&quot;font-size: 48px;&quot;&gt;Host&lt;/font&gt;" style="rounded=1;whiteSpace=wrap;html=1;verticalAlign=top;" parent="1" vertex="1">
          <mxGeometry x="-860" y="110" width="240" height="180" as="geometry" />
        </mxCell>
        <mxCell id="GGCa3WzGmQT2JZWEV5bZ-14" value="&lt;font style=&quot;font-size: 24px;&quot;&gt;nvmeof&lt;br&gt;&lt;/font&gt;" style="rounded=0;whiteSpace=wrap;html=1;" parent="1" vertex="1">
          <mxGeometry x="-800" y="170" width="120" height="60" as="geometry" />
        </mxCell>
        <mxCell id="0VppsKLyr3tMA3nW60oo-7" value="" style="endArrow=classic;html=1;rounded=0;strokeWidth=5;strokeColor=#00c800;exitX=0.5;exitY=0;exitDx=0;exitDy=0;entryX=0.5;entryY=1;entryDx=0;entryDy=0;" parent="1" source="GGCa3WzGmQT2JZWEV5bZ-11" target="GGCa3WzGmQT2JZWEV5bZ-14" edge="1">
          <mxGeometry width="50" height="50" relative="1" as="geometry">
            <mxPoint x="-780" y="380" as="sourcePoint" />
            <mxPoint x="-730" y="330" as="targetPoint" />
          </mxGeometry>
        </mxCell>
        <mxCell id="GGCa3WzGmQT2JZWEV5bZ-15" value="" style="endArrow=classic;html=1;rounded=0;strokeWidth=5;strokeColor=#808080;exitX=0.5;exitY=0;exitDx=0;exitDy=0;entryX=0.5;entryY=1;entryDx=0;entryDy=0;" parent="1" source="GGCa3WzGmQT2JZWEV5bZ-8" target="GGCa3WzGmQT2JZWEV5bZ-11" edge="1">
          <mxGeometry width="50" height="50" relative="1" as="geometry">
            <mxPoint x="-850" y="660" as="sourcePoint" />
            <mxPoint x="-730" y="600" as="targetPoint" />
          </mxGeometry>
        </mxCell>
      </root>
    </mxGraphModel>
  </diagram>
</mxfile>
